<svg xmlns="http://www.w3.org/2000/svg" width="512" height="512" viewBox="0 0 512 512" role="img">
<rect width="512" height="512" fill="#0B0F1A"/>
<g transform="translate(0,0)">

    <!-- Mountain -->
    <polygon points="90,330 220,120 300,240 360,180 430,330" fill="#1EA7FF" opacity="0.9"/>
    <!-- Tooth (simplified) -->
    <path d="M210 210c-35 0-55 28-55 72 0 50 20 110 50 110 22 0 24-44 44-44s22 44 44 44c30 0 50-60 50-110 0-44-20-72-55-72-18 0-31 8-39 18-8-10-21-18-39-18z"
          fill="#00E5D4"/>
    <!-- Text -->
    <text x="256" y="460" font-family="Inter, ui-sans-serif, system-ui" font-size="36" fill="#FFFFFF" text-anchor="middle" font-weight="700">Summit Dental</text>
    </g>
</svg>
